<svg version="1.0" xmlns="http://www.w3.org/2000/svg" width="24px" height="24px" viewBox="0 0 512 512" preserveAspectRatio="xMidYMid meet">
  <g transform="translate(0,512) scale(0.1,-0.1)" fill="#000000" stroke="none">
    <path d="M2245 5113 c-554 -26 -1026 -100 -1425 -221 -406 -124 -681 -293 -785 -482 -26 -48 -30 -65 -30 -135 0 -61 6 -92 23 -131 14 -30 371 -506 852 -1135 l829 -1084 1 -850 c0 -808 1 -852 19 -891 28 -62 80 -97 151 -102 54 -4 101 10 678 202 374 125 637 218 663 235 58 36 122 110 156 180 l28 56 5 585 5 585 823 1078 c500 655 834 1100 850 1135 22 46 27 71 27 132 -1 65 -5 83 -34 140 -189 365 -1057 648 -2151 700 -195 9 -531 11 -685 3z m780 -293 c908 -66 1725 -305 1803 -527 60 -173 -502 -405 -1249 -518 -378 -57 -560 -69 -1024 -69 -371 0 -460 3 -644 22 -604 62 -1086 176 -1396 328 -178 89 -253 171 -222 247 52 124 403 282 847 381 276 61 632 113 930 135 166 12 791 13 955 1z m1303 -1232 c-36 -46 -260 -339 -499 -653 -240 -313 -475 -622 -523 -685 -49 -63 -107 -139 -130 -169 l-41 -54 -3 -626 -2 -626 -563 -188 c-309 -103 -566 -187 -570 -187 -4 0 -7 364 -7 808 l0 809 -30 44 c-16 24 -297 393 -623 819 -327 426 -593 776 -592 778 1 1 74 -18 161 -43 326 -93 661 -147 1144 -186 192 -16 809 -16 1020 0 448 33 950 120 1240 215 41 13 76 24 78 25 2 1 -25 -36 -60 -81z"/>
  </g>
</svg>
